# AST/ASF file generated using VICON BodyLanguage
# -----------------------------------------------
:version 1.10
:name VICON
:units
  mass 1.0
  length 0.45
  angle deg
:documentation
   .ast/.asf automatically generated from VICON data using
   VICON BodyBuilder and BodyLanguage model FoxedUp or BRILLIANT.MOD
:root
   order TX TY TZ RX RY RZ
   axis XYZ
   position 0 0 0  
   orientation 0 -0 0 
:bonedata
  begin
     id 1 
     name lhipjoint
     direction 0.515797 -0.759363 0.396637 
     length 2.47888 
     axis 0 -0 0  XYZ
  end
  begin
     id 2 
     name lfemur
     direction 0.34202 -0.939693 0  
     length 6.81885  
     axis 0 -0 20  XYZ
    dof rx ry rz
    limits (-160.0 20.0)
           (-70.0 70.0)
           (-60.0 70.0)
  end
  begin
     id 3 
     name ltibia
     direction 0.342037 -0.939687 0   
     length 7.89258   
     axis 0 -0 20   XYZ
    dof rx
    limits (-10.0 170.0)
  end
  begin
     id 4 
     name lfoot
     direction 0.173497 -0.476678 0.861787   
     length 2.51543   
     axis -90 -1.13533e-015 20   XYZ
    dof rx rz
    limits (-45.0 90.0)
           (-70.0 20.0)
  end
  begin
     id 5 
     name ltoes
     direction 1.53564e-011 -4.21897e-011 1   
     length 1.21388   
     axis -90 -1.13533e-015 20   XYZ
    dof rx
    limits (-90.0 20.0)
  end
  begin
     id 6 
     name rhipjoint
     direction -0.489454 -0.772941 0.403729   
     length 2.43534  
     axis 0 -0 0  XYZ 
  end
  begin
     id 7 
     name rfemur
     direction -0.34202 -0.939693 0   
     length 7.10357   
     axis 0 -0 -20   XYZ
    dof rx ry rz
    limits (-160.0 20.0)
           (-70.0 70.0)
           (-70.0 60.0)
  end
  begin
     id 8 
     name rtibia
     direction -0.34202 -0.939693 0   
     length 9.16127   
     axis 0 -0 -20   XYZ
    dof rx
    limits (-10.0 170.0)
 end
 begin
     id 9 
     name rfoot
     direction -0.270974 -0.748671 0.605033   
     length 1.74894  
     axis -90 1.13533e-015 -20   XYZ
    dof rx rz
    limits (-45.0 90.0)
           (-20.0 70.0)
  end
  begin
     id 10 
     name rtoes
     direction -1.53557e-011 -4.21759e-011 1   
     length 0.787585   
     axis -90 1.13533e-015 -20   XYZ
    dof rx
    limits (-90.0 20.0)
  end
  begin
     id 11 
     name lowerback
     direction -0.0140249 0.999561 0.0260968   
     length 2.16963   
     axis 0 -0 0   XYZ
    dof rx ry rz
    limits (-20.0 45.0)
           (-30.0 30.0)
           (-30.0 30.0)
  end
  begin
     id 12 
     name upperback
     direction 0.00860018 0.999959 -0.002711   
     length 2.1726   
     axis 0 -0 0   XYZ
    dof rx ry rz
    limits (-20.0 45.0)
           (-30.0 30.0)
           (-30.0 30.0)
  end
  begin
     id 13 
     name thorax
     direction 0.015211 0.999782 -0.0143191   
     length 2.17061   
     axis 0 -0 0   XYZ
    dof rx ry rz
    limits (-20.0 45.0)
           (-30.0 30.0)
           (-30.0 30.0)
  end
  begin
     id 14 
     name lowerneck
     direction -0.0140143 0.999447 0.030145   
     length 2.26749   
     axis 0 -0 0   XYZ
    dof rx ry rz
    limits (-20.0 45.0)
           (-30.0 30.0)
           (-30.0 30.0)
  end
  begin
     id 15 
     name upperneck
     direction 0.118062 0.961438 -0.248392   
     length 2.22728   
     axis 0 -0 0   XYZ
    dof rx ry rz
    limits (-20.0 45.0)
           (-30.0 30.0)
           (-30.0 30.0)
  end
  begin
     id 16
     name head
     direction 0.0431885 0.9954 -0.085514  
     length 2.28786  
     axis 0 -0 0   XYZ
    dof rx ry rz
    limits (-20.0 45.0)
           (-30.0 30.0)
           (-30.0 30.0)
  end
  begin
     id 17 
     name lclavicle
     direction 0.912126 0.409548 0.0172323  
     length 4.31571  
     axis 0 -0 0   XYZ
    dof ry rz
    limits (-20.0 10.0)
           (0.0 20.0)
  end
  begin
     id 18 
     name lhumerus
     direction 1 -4.48977e-011 1.93091e-027   
     length 5.13658   
     axis 180 -30 -90   XYZ
    dof rx ry rz
    limits (-60.0 90.0)
           (-90.0 90.0)
           (-90.0 90.0)
  end
  begin
     id 19
     name lradius
     direction 1 -4.48916e-011 6.84018e-027   
     length 3.22473   
     axis 180 -30 -90   XYZ
    dof rx
    limits (-10.0 170.0)
  end
  begin
     id 20
     name lwrist
     direction 1 -4.48987e-011 7.01981e-027   
     length 1.61236   
     axis -4.37994e-015 90 90   XYZ
    dof ry
    limits (-180.0 0.0)
 end
  begin
     id 21 
     name lhand
     direction 1 -4.49037e-011 1.40335e-026   
     length 0.936406   
     axis -8.96029e-015 90 90   XYZ
    dof rx rz
    limits (-90.0 90.0)
           (-45.0 45.0)
  end
  begin
     id 22 
     name lfingers
     direction 1 -4.48886e-011 2.8104e-026   
     length 0.754955   
     axis -1.79203e-014 90 90   XYZ
    dof rx
    limits (0.0 90.0)
  end
  begin
     id 23
     name lthumb
     direction 0.707107 -6.34937e-011 0.707107   
     length 1.08397   
     axis -90 45 -4.48555e-014   XYZ
    dof rx rz
    limits (-45.0 45.0)
           (-45.0 45.0)
  end
  begin
     id 24 
     name rclavicle
     direction -0.947962 0.317997 0.0156638   
     length 4.86918  
     axis 0 -0 0   XYZ 
    dof ry rz
    limits (-10.0 20.0)
           (-20.0 0.0)
  end
  begin
     id 25 
     name rhumerus
     direction -1 -4.48951e-011 2.80534e-018  
     length 5.60911   
     axis 180 30 90   XYZ
    dof rx ry rz
    limits (-90.0 60.0)
           (-90.0 90.0)
           (-90.0 90.0)
  end
  begin
     id 26 
     name rradius
     direction -1 -4.4898e-011 2.11315e-027   
     length 3.38704   
     axis 180 30 90   XYZ
    dof rx
    limits (-10.0 170.0)
  end
  begin
     id 27 
     name rwrist
     direction -1 -4.48933e-011 7.02314e-027   
     length 1.69352   
     axis -4.37994e-015 -90 -90   XYZ
    dof ry
    limits (-180.0 0.0)
  end
  begin
     id 28
     name rhand
     direction -1 -4.48937e-011 1.40458e-026   
     length 0.755878   
     axis -8.96029e-015 -90 -90   XYZ
    dof rx rz
    limits (-90.0 90.0)
           (-45.0 45.0)
  end
  begin
     id 29
     name rfingers
     direction -1 -4.4901e-011 2.80737e-026   
     length 0.609409   
     axis -1.79203e-014 -90 -90   XYZ
    dof rx
    limits (0.0 90.0)
  end
  begin
     id 30
     name rthumb
     direction -0.707107 -6.34968e-011 0.707107   
     length 0.874992   
     axis -90 -45 4.48555e-014   XYZ
    dof rx rz
    limits (-45.0 45.0)
           (-45.0 45.0)
  end
:hierarchy
  begin
    root lhipjoint rhipjoint lowerback
    lhipjoint lfemur
    lfemur ltibia
    ltibia lfoot
    lfoot ltoes
    rhipjoint rfemur
    rfemur rtibia
    rtibia rfoot
    rfoot rtoes
    lowerback upperback
    upperback thorax
    thorax lowerneck lclavicle rclavicle
    lowerneck upperneck
    upperneck head
    lclavicle lhumerus
    lhumerus lradius
    lradius lwrist
    lwrist lhand lthumb
    lhand lfingers
    rclavicle rhumerus
    rhumerus rradius
    rradius rwrist
    rwrist rhand rthumb
    rhand rfingers
  end

#!OML:ASF C:\ViconDB\ViconDB\414\Spring2016\041811\Spring2016.ASF
:FULLY-SPECIFIED
:DEGREES
140
root 8.11907 18.2804 -14.0013 -175.912 -2.06835 180.965
lowerback 5.89966 3.61795 -0.633408
upperback 2.11212 4.65074 -0.83122
thorax -1.10569 2.27283 -0.810704
lowerneck -15.7095 -8.15045 -15.0842
upperneck 13.9322 -11.5428 18.3492
head 8.97875 -4.89351 7.25297
rclavicle -1.03617e-013 1.37161e-014
rhumerus -53.9744 14.669 -99.7526
rradius 109.494
rwrist 10.5553
rhand -32.4883 -11.7811
rfingers 7.12502
rthumb -5.72015 -41.6839
lclavicle -1.03617e-013 1.37161e-014
lhumerus -77.9229 -16.1688 96.049
lradius 85.9041
lwrist -11.9756
lhand -39.5492 11.8694
lfingers 7.12502
lthumb -12.5332 41.4735
rfemur 3.94125 -11.4176 21.6107
rtibia 66.9213
rfoot -150.924 -12.5326
rtoes -18.2478
lfemur -33.7336 3.82718 -21.9948
ltibia 42.3536
lfoot -7.48523 -8.27628
ltoes -7.40896
141
root 8.13167 18.195 -14.4532 -176.586 -2.53987 180.01
lowerback 7.04778 3.33814 -1.40519
upperback 2.18935 4.16026 -1.33102
thorax -1.68495 2.01049 -0.929283
lowerneck -15.738 -8.00857 -14.8747
upperneck 13.9056 -11.3388 18.1766
head 8.91096 -4.79776 7.1854
rclavicle -9.81499e-014 1.90833e-014
rhumerus -54.7251 11.576 -99.2398
rradius 105.228
rwrist 11.5813
rhand -32.8909 -12.3259
rfingers 7.12502
rthumb -6.10891 -42.2178
lclavicle -9.81499e-014 1.90833e-014
lhumerus -75.0998 -15.9862 96.3831
lradius 86.0174
lwrist -13.2477
lhand -39.7258 11.5589
lfingers 7.12502
lthumb -12.7035 41.1525
rfemur 1.14643 -12.7887 19.6553
rtibia 73.3612
rfoot -151.131 -12.3036
rtoes -17.8654
lfemur -31.8211 4.19227 -23.136
ltibia 43.2378
lfoot -9.14663 -8.82483
ltoes -7.8265
142
root 8.13405 18.0933 -14.908 -177.023 -2.89771 178.871
lowerback 7.74529 2.99467 -2.29694
upperback 2.31884 3.55726 -1.88617
thorax -1.95986 1.68983 -0.985745
lowerneck -14.0625 -6.6506 -16.8204
upperneck 10.9055 -9.70233 22.3213
head 7.7067 -4.04228 9.26776
rclavicle -4.7112e-014 3.97569e-016
rhumerus -55.3823 8.84011 -98.678
rradius 100.74
rwrist 12.3832
rhand -33.582 -12.6488
rfingers 7.12502
rthumb -6.77602 -42.5204
lclavicle -4.7112e-014 3.97569e-016
lhumerus -71.9283 -15.7196 96.6682
lradius 86.3773
lwrist -12.8866
lhand -39.4069 11.0148
lfingers 7.12502
lthumb -12.396 40.6273
rfemur -1.88474 -14.1479 17.2346
rtibia 79.5965
rfoot -151.324 -11.7157
rtoes -17.3712
lfemur -30.055 4.5163 -24.4704
ltibia 44.0537
lfoot -11.044 -9.02331
ltoes -8.44446
143
root 8.12699 17.9934 -15.3727 -177.17 -3.38421 177.549
lowerback 8.04497 2.66112 -3.22494
upperback 2.38054 2.96408 -2.48603
thorax -2.0775 1.37443 -1.04246
lowerneck -13.8717 -6.49661 -17.0562
upperneck 10.7432 -9.46639 22.5001
head 7.59217 -3.94491 9.41063
rclavicle 3.12092e-014 -6.91771e-014
rhumerus -55.7676 5.79161 -97.4922
rradius 95.8277
rwrist 13.502
rhand -33.2217 -12.5479
rfingers 7.12502
rthumb -6.42823 -42.4303
lclavicle 3.12092e-014 -6.91771e-014
lhumerus -68.6577 -15.751 97.0973
lradius 85.8955
lwrist -15.1127
lhand -39.9315 11.2235
lfingers 7.12502
lthumb -12.9017 40.8047
rfemur -5.09755 -15.6902 14.4623
rtibia 85.4645
rfoot -151.463 -10.9546
rtoes -16.8192
lfemur -28.6479 4.70664 -26.0138
ltibia 44.8017
lfoot -12.7063 -9.19931
ltoes -7.97339
144
root 8.10808 17.8928 -15.8394 -177.19 -3.90913 176.817
lowerback 7.98106 2.20557 -3.37751
upperback 2.49702 2.30335 -2.97697
thorax -1.90358 1.02756 -1.39324
lowerneck -13.8346 -6.36523 -17.5828
upperneck 10.5808 -9.29771 23.1601
head 7.56664 -3.86673 9.78264
rclavicle 1.66979e-014 2.06736e-014
rhumerus -56.0151 2.98431 -96.1847
rradius 90.6763
rwrist 14.9131
rhand -34.065 -12.2899
rfingers 7.12502
rthumb -7.24231 -42.146
lclavicle 1.66979e-014 2.06736e-014
lhumerus -65.1482 -16.0839 97.5061
lradius 85.993
lwrist -14.511
lhand -39.4132 10.858
lfingers 7.12502
lthumb -12.4021 40.4701
rfemur -8.39452 -17.3554 12.1741
rtibia 90.8612
rfoot -151.523 -10.1091
rtoes -16.8063
lfemur -27.2687 4.55442 -26.877
ltibia 45.4555
lfoot -14.7037 -9.17723
ltoes -8.26731
145
root 8.09529 17.7942 -16.2966 -177.137 -3.9679 175.774
lowerback 7.95241 1.90561 -4.0995
upperback 2.52592 1.78358 -3.52751
thorax -1.86308 0.745602 -1.50783
lowerneck -13.8218 -6.19863 -17.7045
upperneck 10.6784 -9.14245 23.471
head 7.58487 -3.79181 9.95341
rclavicle -3.65764e-014 6.83819e-014
rhumerus -56.4495 0.474459 -94.788
rradius 85.6303
rwrist 16.4356
rhand -34.4658 -12.8541
rfingers 7.12502
rthumb -7.62918 -42.6965
lclavicle -3.65764e-014 6.83819e-014
lhumerus -61.5049 -16.4891 97.8089
lradius 85.6303
lwrist -15.4311
lhand -39.5041 11.0568
lfingers 7.12502
lthumb -12.4897 40.6635
rfemur -12.0222 -18.543 9.59868
rtibia 95.9407
rfoot -151.531 -9.12771
rtoes -16.5955
lfemur -25.8084 4.59696 -28.016
ltibia 45.9986
lfoot -16.592 -9.10647
ltoes -8.97083
146
root 8.08067 17.6874 -16.7319 -177.075 -4.27491 174.916
lowerback 8.08943 1.51905 -4.56479
upperback 2.55532 1.1629 -3.97523
thorax -1.90743 0.415769 -1.65492
lowerneck -14.1585 -6.08908 -17.5707
upperneck 11.1456 -9.04814 23.3942
head 7.7597 -3.72305 9.92972
rclavicle -2.5842e-015 -2.38542e-014
rhumerus -57.0229 -1.61461 -93.3084
rradius 81.0233
rwrist 17.6102
rhand -35.1324 -12.8973
rfingers 7.12502
rthumb -8.27258 -42.7153
lclavicle -2.5842e-015 -2.38542e-014
lhumerus -57.8861 -17.2056 98.3039
lradius 85.4852
lwrist -15.7696
lhand -39.6839 10.9398
lfingers 7.12502
lthumb -12.6631 40.5359
rfemur -15.7869 -20.0055 7.26421
rtibia 100.625
rfoot -151.667 -8.11624
rtoes -16.1806
lfemur -24.3131 4.38219 -28.952
ltibia 46.4513
lfoot -18.5576 -9.00631
ltoes -9.20842
147
root 8.07963 17.5923 -17.1703 -177.206 -4.73088 174.154
lowerback 8.37419 1.18867 -4.99041
upperback 2.62621 0.604579 -4.37431
thorax -1.99116 0.115157 -1.78075
lowerneck -14.1366 -6.09107 -17.8127
upperneck 11.3548 -9.12834 23.6989
head 7.87148 -3.76406 10.0942
rclavicle 2.08724e-014 3.18055e-014
rhumerus -58.045 -3.26731 -92.0017
rradius 76.981
rwrist 18.849
rhand -36.9003 -12.8039
rfingers 7.12502
rthumb -9.97844 -42.5474
lclavicle 2.08724e-014 3.18055e-014
lhumerus -54.2313 -18.4734 98.7163
lradius 85.4805
lwrist -16.3239
lhand -39.2842 11.0404
lfingers 7.12502
lthumb -12.2777 40.6599
rfemur -19.1672 -21.4495 5.16577
rtibia 104.572
rfoot -151.65 -6.91418
rtoes -15.8478
lfemur -22.464 3.82606 -29.5996
ltibia 46.6751
lfoot -20.3054 -9.04321
ltoes -9.87325
148
root 8.0808 17.5074 -17.5975 -177.156 -5.41386 173.329
lowerback 8.82012 0.848768 -5.58232
upperback 2.54301 0.00989678 -4.64675
thorax -2.32382 -0.190896 -1.67736
lowerneck -14.1058 -6.12744 -17.9925
upperneck 11.658 -9.24034 23.8054
head 8.00323 -3.823 10.1693
rclavicle -1.25234e-014 -2.3059e-014
rhumerus -59.6863 -4.53323 -90.3465
rradius 73.9779
rwrist 20.5259
rhand -37.1822 -12.2792
rfingers 7.12502
rthumb -10.2504 -42.0095
lclavicle -1.25234e-014 -2.3059e-014
lhumerus -50.6689 -20.0126 99.1152
lradius 85.6716
lwrist -18.1037
lhand -38.8187 11.7381
lfingers 7.12502
lthumb -11.8288 41.3841
rfemur -22.6952 -23.1111 3.16353
rtibia 107.929
rfoot -151.811 -5.49243
rtoes -15.4775
lfemur -20.7219 2.96158 -30.323
ltibia 46.6839
lfoot -21.8873 -9.05208
ltoes -10.5924
149
root 8.08683 17.4276 -18.0213 -177.154 -6.15219 172.501
lowerback 9.34699 0.482647 -6.32521
upperback 2.50514 -0.653077 -4.88477
thorax -2.64558 -0.531493 -1.43931
lowerneck -14.0918 -6.15092 -18.1973
upperneck 11.7952 -9.37401 24.1814
head 8.11166 -3.88907 10.3463
rclavicle 2.26615e-014 1.59823e-013
rhumerus -61.6251 -5.0477 -89.2251
rradius 72.2518
rwrist 20.6588
rhand -36.5188 -12.056
rfingers 7.12502
rthumb -9.6104 -41.8168
lclavicle 2.26615e-014 1.59823e-013
lhumerus -47.0598 -21.4949 99.2965
lradius 86.148
lwrist -19.2672
lhand -38.19 10.7759
lfingers 7.12502
lthumb -11.2225 40.4558
rfemur -26.0432 -24.6776 1.32453
rtibia 110.585
rfoot -151.769 -3.75755
rtoes -14.7209
lfemur -18.7583 2.09511 -31.0478
ltibia 46.4205
lfoot -23.2991 -9.03457
ltoes -11.5285
150
root 8.09961 17.3651 -18.452 -177.304 -6.94664 172.206
lowerback 9.84261 0.0975116 -6.67737
upperback 2.57764 -1.25945 -4.85199
thorax -2.82492 -0.834264 -1.13517
lowerneck -14.0663 -6.0731 -18.2158
upperneck 11.6995 -9.31128 24.3953
head 8.07665 -3.86023 10.4403
rclavicle 1.59028e-015 -6.44062e-014
rhumerus -63.5623 -4.81443 -88.5159
rradius 71.4454
rwrist 19.6157
rhand -35.5277 -12.0426
rfingers 7.12502
rthumb -8.65408 -41.8452
lclavicle 1.59028e-015 -6.44062e-014
lhumerus -43.504 -22.8516 99.4852
lradius 87.0673
lwrist -20.5132
lhand -37.6276 9.56817
lfingers 7.12502
lthumb -10.6801 39.2767
rfemur -29.2132 -25.687 0.736787
rtibia 112.297
rfoot -152.006 -2.26389
rtoes -14.1635
lfemur -16.5045 1.27566 -31.1196
ltibia 45.9535
lfoot -24.5695 -9.10814
ltoes -12.4929
151
root 8.11478 17.3241 -18.8975 -177.225 -7.62473 172.063
lowerback 10.0953 -0.279024 -6.86885
upperback 2.50089 -1.8001 -4.7781
thorax -3.02176 -1.09132 -0.881986
lowerneck -13.9031 -6.03475 -18.3083
upperneck 11.5121 -9.30557 24.6608
head 8.00791 -3.87028 10.5573
rclavicle 1.53064e-014 6.44062e-014
rhumerus -65.7192 -3.91406 -88.3574
rradius 71.7059
rwrist 17.2761
rhand -34.3863 -12.2963
rfingers 7.12502
rthumb -7.55245 -42.1415
lclavicle 1.53064e-014 6.44062e-014
lhumerus -40.4825 -24.1985 99.7306
lradius 88.5476
lwrist -22.2586
lhand -36.9898 9.34049
lfingers 7.12502
lthumb -10.0648 39.0798
rfemur -32.7276 -26.3308 0.977058
rtibia 113.256
rfoot -152.21 -1.20239
rtoes -13.7912
lfemur -14.4009 0.493969 -30.9923
ltibia 45.2458
lfoot -25.4747 -9.32877
ltoes -12.8796
